<?xml version="1.0" standalone="no"?>
<!DOCTYPE svg PUBLIC "-//W3C//DTD SVG 20010904//EN"
 "http://www.w3.org/TR/2001/REC-SVG-20010904/DTD/svg10.dtd">
<svg version="1.0" xmlns="http://www.w3.org/2000/svg"
 width="2597.000000pt" height="779.000000pt" viewBox="0 0 2597.000000 779.000000"
 preserveAspectRatio="xMidYMid meet">
<metadata>
Created by potrace 1.16, written by Peter Selinger 2001-2019
</metadata>
<g transform="translate(0.000000,779.000000) scale(0.100000,-0.100000)"
fill="#000000" stroke="none">
<path d="M6225 7784 c-11 -2 -45 -9 -75 -15 -30 -6 -92 -28 -137 -50 -217
-104 -355 -343 -340 -590 20 -321 268 -569 587 -586 404 -23 725 344 646 737
-49 240 -219 425 -449 486 -55 15 -198 26 -232 18z m252 -439 c48 -20 71 -41
95 -89 26 -51 21 -121 -13 -170 -92 -135 -301 -80 -317 83 -7 76 34 143 108
175 45 20 82 20 127 1z"/>
<path d="M4385 6104 c-558 -75 -1132 -365 -1685 -851 -133 -117 -438 -424
-530 -533 -61 -73 -56 -69 83 53 856 754 1662 1142 2214 1066 409 -56 671
-350 734 -827 16 -123 6 -428 -19 -567 -51 -280 -143 -573 -257 -823 l-39 -84
-24 39 c-50 80 -172 340 -217 461 -52 141 -115 377 -139 522 -56 340 -53 703
8 998 l14 62 -37 0 c-69 0 -312 -41 -444 -74 -150 -38 -296 -91 -410 -148
l-78 -39 6 -62 c33 -335 96 -598 210 -883 177 -440 429 -822 762 -1152 l134
-132 -87 -138 c-48 -75 -101 -159 -118 -187 -40 -64 -212 -295 -235 -315 -10
-8 -48 -52 -85 -97 -37 -46 -74 -83 -82 -83 -29 0 -304 117 -483 205 -450 222
-787 459 -1198 841 l-83 77 0 -149 c0 -328 65 -642 196 -952 l39 -92 135 -44
c316 -103 621 -180 939 -236 63 -11 116 -22 118 -23 2 -2 -59 -64 -134 -138
-496 -484 -1154 -965 -1841 -1344 -67 -38 -125 -72 -128 -77 -8 -12 159 72
453 228 1228 652 2214 1300 2983 1958 124 107 507 464 565 527 17 18 -40 -32
-125 -111 -86 -80 -194 -179 -240 -220 l-85 -75 85 90 c474 500 753 985 854
1487 114 563 -19 1073 -374 1429 -231 232 -515 369 -858 414 -137 18 -361 18
-497 -1z"/>
<path d="M6785 5534 c39 -142 55 -414 36 -579 -14 -115 -42 -258 -71 -355
l-20 -67 49 -89 c189 -339 292 -740 295 -1144 1 -206 -8 -316 -35 -459 -132
-682 -547 -1274 -1143 -1628 -262 -156 -553 -260 -866 -309 -161 -26 -539 -26
-695 -1 -307 51 -608 156 -855 301 -33 20 -65 36 -70 36 -4 0 -100 -56 -213
-124 -113 -68 -315 -186 -449 -262 -134 -75 -247 -140 -251 -144 -10 -8 141
-130 277 -224 263 -182 523 -311 856 -425 l165 -56 868 -3 869 -2 121 36 c330
97 684 271 977 478 333 236 639 553 867 898 305 462 501 1019 549 1559 l7 76
-79 7 c-44 4 -108 9 -144 12 l-65 6 -1 217 c-2 721 -235 1380 -683 1941 -94
117 -304 333 -296 304z"/>
<path d="M586 4598 l-589 -691 219 -216 c229 -227 386 -364 617 -537 122 -92
367 -261 468 -322 l36 -22 -8 51 c-5 28 -13 126 -20 218 -29 425 34 903 175
1319 l35 103 -83 167 c-82 168 -184 413 -227 550 -13 39 -25 72 -28 71 -4 0
-271 -311 -595 -691z"/>
<path d="M8661 4783 c-68 -247 -126 -453 -128 -460 -3 -8 42 -12 169 -15 152
-3 177 -5 206 -23 43 -26 72 -73 72 -118 0 -26 -761 -2797 -795 -2895 -4 -10
115 -12 587 -10 l591 3 459 1755 c252 965 485 1857 517 1983 l59 227 -807 0
-806 0 -124 -447z"/>
<path d="M10556 5213 c-3 -10 -55 -209 -116 -443 -61 -234 -113 -433 -116
-442 -5 -17 7 -18 156 -18 177 0 197 -5 244 -60 19 -24 26 -43 26 -75 0 -25
-160 -669 -365 -1473 -201 -786 -365 -1434 -365 -1441 0 -8 144 -11 543 -11
l544 0 274 1090 c150 599 276 1086 280 1082 3 -4 187 -477 409 -1052 221 -575
409 -1062 417 -1083 l15 -37 528 0 c495 0 529 1 534 18 12 38 996 3942 996
3952 0 7 -175 10 -523 10 l-522 0 -209 -742 c-239 -847 -252 -897 -306 -1182
-22 -115 -41 -210 -43 -212 -2 -2 -184 477 -404 1064 l-400 1067 -796 3 c-751
2 -796 1 -801 -15z"/>
<path d="M14736 5208 c-19 -68 -216 -859 -216 -868 0 -6 59 -10 163 -10 151 0
167 -2 207 -23 47 -25 80 -74 80 -120 0 -15 -99 -382 -219 -815 -121 -433
-299 -1077 -396 -1432 -97 -355 -178 -653 -181 -662 -5 -17 26 -18 560 -18
l565 0 15 53 c30 104 346 1277 346 1282 0 3 143 5 319 5 l319 0 10 -42 c6 -24
70 -325 143 -670 l133 -628 598 0 c563 0 598 1 597 18 0 9 -80 318 -178 687
l-177 670 95 31 c236 75 395 211 471 404 32 81 381 1468 393 1563 30 238 -67
434 -263 530 -142 70 -57 67 -1805 67 l-1573 0 -6 -22z m2464 -909 c0 -6 -50
-186 -112 -400 l-112 -389 -537 0 -538 0 19 67 c11 36 61 216 112 400 l92 333
538 0 c379 0 538 -3 538 -11z"/>
<path d="M18621 4788 c-67 -244 -124 -451 -127 -460 -4 -15 14 -17 193 -20
215 -3 234 -8 277 -65 43 -58 51 -24 -373 -1542 -221 -789 -401 -1436 -401
-1438 0 -1 697 -3 1549 -3 1467 0 1550 1 1555 18 3 9 50 215 106 457 55 242
103 448 106 458 5 16 -43 17 -916 17 -873 0 -921 1 -916 18 3 9 35 125 71 257
36 132 70 255 76 272 l11 33 816 2 816 3 127 460 127 460 -636 3 -635 2 -226
-169 c-124 -94 -227 -168 -229 -167 -2 2 57 211 130 465 l132 461 871 0 870 0
123 438 c67 240 125 447 129 460 l5 22 -1754 0 -1754 0 -123 -442z"/>
<path d="M22330 4779 c-69 -248 -126 -458 -128 -465 -3 -11 28 -14 168 -14
188 0 207 -5 254 -60 19 -23 26 -43 26 -74 0 -25 -162 -624 -400 -1476 -220
-788 -400 -1435 -400 -1437 0 -2 600 -2 1333 0 1236 3 1337 4 1407 21 280 66
480 225 607 481 22 44 50 109 63 145 26 77 663 2525 691 2655 72 341 -54 557
-376 647 l-80 23 -1520 3 -1520 2 -125 -451z m2370 -481 c-1 -2 -132 -475
-293 -1053 l-292 -1050 -45 -7 c-25 -3 -285 -7 -578 -7 l-533 -1 203 176 c112
97 206 184 210 193 4 9 103 383 219 831 116 448 217 839 225 868 l15 52 435 0
c239 0 434 -1 434 -2z"/>
<path d="M1424 2385 c4 -20 25 -91 48 -158 155 -469 402 -889 717 -1222 21
-22 49 -54 62 -70 16 -20 31 -29 44 -27 49 10 795 545 795 570 0 4 -44 52 -99
107 -54 55 -125 131 -157 168 l-59 68 -170 58 c-93 33 -201 71 -240 86 -232
89 -600 261 -795 372 -169 96 -154 91 -146 48z"/>
<path d="M5177 2143 c-2 -4 -8 -44 -12 -88 -4 -45 -15 -96 -26 -117 -10 -21
-19 -48 -19 -62 0 -21 -6 -26 -37 -31 -58 -10 -60 -11 -66 -43 -5 -25 -12 -31
-44 -37 -20 -4 -53 -20 -72 -37 -19 -17 -60 -46 -90 -66 -31 -19 -73 -50 -93
-70 l-37 -35 -138 6 c-88 4 -175 15 -241 30 l-102 24 -35 -24 c-19 -13 -41
-23 -49 -23 -9 0 -43 -9 -76 -21 -34 -11 -67 -18 -76 -15 -8 3 -43 -8 -77 -24
-34 -16 -107 -48 -162 -71 -115 -47 -214 -101 -239 -128 -17 -19 -17 -20 6
-35 58 -37 304 -149 408 -184 269 -92 482 -126 780 -126 366 0 662 62 984 205
193 86 456 255 600 385 l30 26 -35 29 c-34 28 -35 28 -172 29 -133 0 -139 1
-190 29 -80 45 -176 76 -189 63 -17 -17 -96 -3 -144 25 -30 17 -47 21 -63 15
-17 -6 -53 4 -137 37 -113 45 -114 46 -114 78 0 22 -6 36 -20 43 -18 10 -20
21 -20 104 0 68 -4 97 -14 105 -8 7 -16 8 -19 4z"/>
</g>
</svg>
